# Wavefront OBJ file automatically generated by Tiled2Unity

# Vertices (Count = 425)
v 0 -1 0
v -1 -1 0
v -1 0 0
v 0 0 0
v -2 -1 0
v -2 0 0
v -3 -1 0
v -3 0 0
v -4 -1 0
v -4 0 0
v -5 -1 0
v -5 0 0
v -6 -1 0
v -6 0 0
v -7 -1 0
v -7 0 0
v -8 -1 0
v -8 0 0
v -9 -1 0
v -9 0 0
v -10 -1 0
v -10 0 0
v -11 -1 0
v -11 0 0
v -12 -1 0
v -12 0 0
v -13 -1 0
v -13 0 0
v -14 -1 0
v -14 0 0
v -15 -1 0
v -15 0 0
v -16 -1 0
v -16 0 0
v -17 -1 0
v -17 0 0
v 0 -2 0
v -1 -2 0
v -2 -2 0
v -3 -2 0
v -4 -2 0
v -5 -2 0
v -6 -2 0
v -7 -2 0
v -8 -2 0
v -9 -2 0
v -10 -2 0
v -11 -2 0
v -12 -2 0
v -13 -2 0
v -14 -2 0
v -15 -2 0
v -16 -2 0
v -17 -2 0
v 0 -3 0
v -1 -3 0
v -2 -3 0
v -3 -3 0
v -4 -3 0
v -5 -3 0
v -6 -3 0
v -7 -3 0
v -8 -3 0
v -9 -3 0
v -10 -3 0
v -11 -3 0
v -12 -3 0
v -13 -3 0
v -14 -3 0
v -15 -3 0
v -16 -3 0
v -17 -3 0
v 0 -4 0
v -1 -4 0
v -2 -4 0
v -3 -4 0
v -4 -4 0
v -5 -4 0
v -6 -4 0
v -7 -4 0
v -8 -4 0
v -9 -4 0
v -10 -4 0
v -11 -4 0
v -12 -4 0
v -13 -4 0
v -14 -4 0
v -15 -4 0
v -16 -4 0
v -17 -4 0
v 0 -5 0
v -1 -5 0
v -2 -5 0
v -3 -5 0
v -4 -5 0
v -5 -5 0
v -6 -5 0
v -7 -5 0
v -8 -5 0
v -9 -5 0
v -10 -5 0
v -11 -5 0
v -12 -5 0
v -13 -5 0
v -14 -5 0
v -15 -5 0
v -16 -5 0
v -17 -5 0
v 0 -6 0
v -1 -6 0
v -2 -6 0
v -3 -6 0
v -4 -6 0
v -5 -6 0
v -6 -6 0
v -7 -6 0
v -8 -6 0
v -9 -6 0
v -10 -6 0
v -11 -6 0
v -12 -6 0
v -13 -6 0
v -14 -6 0
v -15 -6 0
v -16 -6 0
v -17 -6 0
v 0 -7 0
v -1 -7 0
v -2 -7 0
v -3 -7 0
v -4 -7 0
v -5 -7 0
v -6 -7 0
v -7 -7 0
v -8 -7 0
v -9 -7 0
v -10 -7 0
v -11 -7 0
v -12 -7 0
v -13 -7 0
v -14 -7 0
v -15 -7 0
v -16 -7 0
v -17 -7 0
v 0 -8 0
v -1 -8 0
v -2 -8 0
v -3 -8 0
v -4 -8 0
v -5 -8 0
v -6 -8 0
v -7 -8 0
v -8 -8 0
v -9 -8 0
v -10 -8 0
v -11 -8 0
v -12 -8 0
v -13 -8 0
v -14 -8 0
v -15 -8 0
v -16 -8 0
v -17 -8 0
v 0 -9 0
v -1 -9 0
v -2 -9 0
v -3 -9 0
v -4 -9 0
v -5 -9 0
v -6 -9 0
v -7 -9 0
v -8 -9 0
v -9 -9 0
v -10 -9 0
v -11 -9 0
v -12 -9 0
v -13 -9 0
v -14 -9 0
v -15 -9 0
v -16 -9 0
v -17 -9 0
v 0 -10 0
v -1 -10 0
v -2 -10 0
v -3 -10 0
v -4 -10 0
v -5 -10 0
v -6 -10 0
v -7 -10 0
v -8 -10 0
v -9 -10 0
v -10 -10 0
v -11 -10 0
v -12 -10 0
v -13 -10 0
v -14 -10 0
v -15 -10 0
v -16 -10 0
v -17 -10 0
v 0 -11 0
v -1 -11 0
v -2 -11 0
v -3 -11 0
v -4 -11 0
v -5 -11 0
v -6 -11 0
v -7 -11 0
v -8 -11 0
v -9 -11 0
v -10 -11 0
v -11 -11 0
v -12 -11 0
v -13 -11 0
v -14 -11 0
v -15 -11 0
v -16 -11 0
v -17 -11 0
v 0 -12 0
v -1 -12 0
v -2 -12 0
v -3 -12 0
v -4 -12 0
v -5 -12 0
v -6 -12 0
v -7 -12 0
v -8 -12 0
v -9 -12 0
v -10 -12 0
v -11 -12 0
v -12 -12 0
v -13 -12 0
v -14 -12 0
v -15 -12 0
v -16 -12 0
v -17 -12 0
v 0 -13 0
v -1 -13 0
v -2 -13 0
v -3 -13 0
v -4 -13 0
v -5 -13 0
v -6 -13 0
v -7 -13 0
v -8 -13 0
v -9 -13 0
v -10 -13 0
v -11 -13 0
v -12 -13 0
v -13 -13 0
v -14 -13 0
v -15 -13 0
v -16 -13 0
v -17 -13 0
v 0 -14 0
v -1 -14 0
v -2 -14 0
v -3 -14 0
v -4 -14 0
v -5 -14 0
v -6 -14 0
v -7 -14 0
v -8 -14 0
v -9 -14 0
v -10 -14 0
v -11 -14 0
v -12 -14 0
v -13 -14 0
v -14 -14 0
v -15 -14 0
v -16 -14 0
v -17 -14 0
v 0 -15 0
v -1 -15 0
v -2 -15 0
v -3 -15 0
v -4 -15 0
v -5 -15 0
v -6 -15 0
v -7 -15 0
v -8 -15 0
v -9 -15 0
v -10 -15 0
v -11 -15 0
v -12 -15 0
v -13 -15 0
v -14 -15 0
v -15 -15 0
v -16 -15 0
v -17 -15 0
v 0 -16 0
v -1 -16 0
v -2 -16 0
v -3 -16 0
v -4 -16 0
v -5 -16 0
v -6 -16 0
v -7 -16 0
v -8 -16 0
v -9 -16 0
v -10 -16 0
v -11 -16 0
v -12 -16 0
v -13 -16 0
v -14 -16 0
v -15 -16 0
v -16 -16 0
v -17 -16 0
v -18 -1 0
v -18 0 0
v -19 -1 0
v -19 0 0
v -20 -1 0
v -20 0 0
v -21 -1 0
v -21 0 0
v -22 -1 0
v -22 0 0
v -23 -1 0
v -23 0 0
v -24 -1 0
v -24 0 0
v -18 -2 0
v -19 -2 0
v -20 -2 0
v -21 -2 0
v -22 -2 0
v -23 -2 0
v -24 -2 0
v -18 -3 0
v -19 -3 0
v -20 -3 0
v -21 -3 0
v -22 -3 0
v -23 -3 0
v -24 -3 0
v -18 -4 0
v -19 -4 0
v -20 -4 0
v -21 -4 0
v -22 -4 0
v -23 -4 0
v -24 -4 0
v -18 -5 0
v -19 -5 0
v -20 -5 0
v -21 -5 0
v -22 -5 0
v -23 -5 0
v -24 -5 0
v -18 -6 0
v -19 -6 0
v -20 -6 0
v -21 -6 0
v -22 -6 0
v -23 -6 0
v -24 -6 0
v -18 -7 0
v -19 -7 0
v -20 -7 0
v -21 -7 0
v -22 -7 0
v -23 -7 0
v -24 -7 0
v -18 -8 0
v -19 -8 0
v -20 -8 0
v -21 -8 0
v -22 -8 0
v -23 -8 0
v -24 -8 0
v -18 -9 0
v -19 -9 0
v -20 -9 0
v -21 -9 0
v -22 -9 0
v -23 -9 0
v -24 -9 0
v -18 -10 0
v -19 -10 0
v -20 -10 0
v -21 -10 0
v -22 -10 0
v -23 -10 0
v -24 -10 0
v -18 -11 0
v -19 -11 0
v -20 -11 0
v -21 -11 0
v -22 -11 0
v -23 -11 0
v -24 -11 0
v -18 -12 0
v -19 -12 0
v -20 -12 0
v -21 -12 0
v -22 -12 0
v -23 -12 0
v -24 -12 0
v -18 -13 0
v -19 -13 0
v -20 -13 0
v -21 -13 0
v -22 -13 0
v -23 -13 0
v -24 -13 0
v -18 -14 0
v -19 -14 0
v -20 -14 0
v -21 -14 0
v -22 -14 0
v -23 -14 0
v -24 -14 0
v -18 -15 0
v -19 -15 0
v -20 -15 0
v -21 -15 0
v -22 -15 0
v -23 -15 0
v -24 -15 0
v -18 -16 0
v -19 -16 0
v -20 -16 0
v -21 -16 0
v -22 -16 0
v -23 -16 0
v -24 -16 0

# Texture cooridinates (Count = 20)
vt 4.069011E-05 0.6667074
vt 0.3332926 0.6667074
vt 0.3332926 0.9999593
vt 4.069011E-05 0.9999593
vt 4.069011E-05 4.070997E-05
vt 0.3332926 4.070997E-05
vt 0.3332926 0.3332927
vt 4.069011E-05 0.3332927
vt 0.333374 0.6667074
vt 0.666626 0.6667074
vt 0.666626 0.9999593
vt 0.333374 0.9999593
vt 0.6667073 4.070997E-05
vt 0.9999593 4.070997E-05
vt 0.9999593 0.3332927
vt 0.6667073 0.3332927
vt 0.6667073 0.6667074
vt 0.9999593 0.6667074
vt 0.9999593 0.9999593
vt 0.6667073 0.9999593

# Normal
vn 0 0 -1

# Groups (Count = 2)

g mesh_0001
f 1/1/1 2/2/1 3/3/1 4/4/1
f 2/1/1 5/2/1 6/3/1 3/4/1
f 5/1/1 7/2/1 8/3/1 6/4/1
f 7/1/1 9/2/1 10/3/1 8/4/1
f 9/1/1 11/2/1 12/3/1 10/4/1
f 11/1/1 13/2/1 14/3/1 12/4/1
f 13/5/1 15/6/1 16/7/1 14/8/1
f 15/9/1 17/10/1 18/11/1 16/12/1
f 17/9/1 19/10/1 20/11/1 18/12/1
f 19/9/1 21/10/1 22/11/1 20/12/1
f 21/9/1 23/10/1 24/11/1 22/12/1
f 23/9/1 25/10/1 26/11/1 24/12/1
f 25/9/1 27/10/1 28/11/1 26/12/1
f 27/9/1 29/10/1 30/11/1 28/12/1
f 29/9/1 31/10/1 32/11/1 30/12/1
f 31/9/1 33/10/1 34/11/1 32/12/1
f 33/9/1 35/10/1 36/11/1 34/12/1
f 37/1/1 38/2/1 2/3/1 1/4/1
f 38/1/1 39/2/1 5/3/1 2/4/1
f 39/1/1 40/2/1 7/3/1 5/4/1
f 40/1/1 41/2/1 9/3/1 7/4/1
f 41/1/1 42/2/1 11/3/1 9/4/1
f 42/1/1 43/2/1 13/3/1 11/4/1
f 43/5/1 44/6/1 15/7/1 13/8/1
f 44/9/1 45/10/1 17/11/1 15/12/1
f 45/9/1 46/10/1 19/11/1 17/12/1
f 46/9/1 47/10/1 21/11/1 19/12/1
f 47/9/1 48/10/1 23/11/1 21/12/1
f 48/9/1 49/10/1 25/11/1 23/12/1
f 49/9/1 50/10/1 27/11/1 25/12/1
f 50/9/1 51/10/1 29/11/1 27/12/1
f 51/9/1 52/10/1 31/11/1 29/12/1
f 52/9/1 53/10/1 33/11/1 31/12/1
f 53/9/1 54/10/1 35/11/1 33/12/1
f 55/1/1 56/2/1 38/3/1 37/4/1
f 56/1/1 57/2/1 39/3/1 38/4/1
f 57/1/1 58/2/1 40/3/1 39/4/1
f 58/1/1 59/2/1 41/3/1 40/4/1
f 59/1/1 60/2/1 42/3/1 41/4/1
f 60/1/1 61/2/1 43/3/1 42/4/1
f 61/5/1 62/6/1 44/7/1 43/8/1
f 62/9/1 63/10/1 45/11/1 44/12/1
f 63/9/1 64/10/1 46/11/1 45/12/1
f 64/9/1 65/10/1 47/11/1 46/12/1
f 65/9/1 66/10/1 48/11/1 47/12/1
f 66/9/1 67/10/1 49/11/1 48/12/1
f 67/9/1 68/10/1 50/11/1 49/12/1
f 68/9/1 69/10/1 51/11/1 50/12/1
f 69/9/1 70/10/1 52/11/1 51/12/1
f 70/9/1 71/10/1 53/11/1 52/12/1
f 71/9/1 72/10/1 54/11/1 53/12/1
f 73/1/1 74/2/1 56/3/1 55/4/1
f 74/1/1 75/2/1 57/3/1 56/4/1
f 75/1/1 76/2/1 58/3/1 57/4/1
f 76/1/1 77/2/1 59/3/1 58/4/1
f 77/1/1 78/2/1 60/3/1 59/4/1
f 78/1/1 79/2/1 61/3/1 60/4/1
f 79/5/1 80/6/1 62/7/1 61/8/1
f 80/9/1 81/10/1 63/11/1 62/12/1
f 81/9/1 82/10/1 64/11/1 63/12/1
f 82/9/1 83/10/1 65/11/1 64/12/1
f 83/9/1 84/10/1 66/11/1 65/12/1
f 84/9/1 85/10/1 67/11/1 66/12/1
f 85/9/1 86/10/1 68/11/1 67/12/1
f 86/9/1 87/10/1 69/11/1 68/12/1
f 87/9/1 88/10/1 70/11/1 69/12/1
f 88/9/1 89/10/1 71/11/1 70/12/1
f 89/9/1 90/10/1 72/11/1 71/12/1
f 91/1/1 92/2/1 74/3/1 73/4/1
f 92/1/1 93/2/1 75/3/1 74/4/1
f 93/1/1 94/2/1 76/3/1 75/4/1
f 94/1/1 95/2/1 77/3/1 76/4/1
f 95/1/1 96/2/1 78/3/1 77/4/1
f 96/1/1 97/2/1 79/3/1 78/4/1
f 97/5/1 98/6/1 80/7/1 79/8/1
f 98/9/1 99/10/1 81/11/1 80/12/1
f 99/9/1 100/10/1 82/11/1 81/12/1
f 100/9/1 101/10/1 83/11/1 82/12/1
f 101/9/1 102/10/1 84/11/1 83/12/1
f 102/9/1 103/10/1 85/11/1 84/12/1
f 103/9/1 104/10/1 86/11/1 85/12/1
f 104/9/1 105/10/1 87/11/1 86/12/1
f 105/9/1 106/10/1 88/11/1 87/12/1
f 106/9/1 107/10/1 89/11/1 88/12/1
f 107/9/1 108/10/1 90/11/1 89/12/1
f 109/1/1 110/2/1 92/3/1 91/4/1
f 110/1/1 111/2/1 93/3/1 92/4/1
f 111/1/1 112/2/1 94/3/1 93/4/1
f 112/1/1 113/2/1 95/3/1 94/4/1
f 113/1/1 114/2/1 96/3/1 95/4/1
f 114/1/1 115/2/1 97/3/1 96/4/1
f 115/5/1 116/6/1 98/7/1 97/8/1
f 116/9/1 117/10/1 99/11/1 98/12/1
f 117/9/1 118/10/1 100/11/1 99/12/1
f 118/9/1 119/10/1 101/11/1 100/12/1
f 119/9/1 120/10/1 102/11/1 101/12/1
f 120/9/1 121/10/1 103/11/1 102/12/1
f 121/9/1 122/10/1 104/11/1 103/12/1
f 122/9/1 123/10/1 105/11/1 104/12/1
f 123/9/1 124/10/1 106/11/1 105/12/1
f 124/9/1 125/10/1 107/11/1 106/12/1
f 125/9/1 126/10/1 108/11/1 107/12/1
f 127/1/1 128/2/1 110/3/1 109/4/1
f 128/1/1 129/2/1 111/3/1 110/4/1
f 129/1/1 130/2/1 112/3/1 111/4/1
f 130/1/1 131/2/1 113/3/1 112/4/1
f 131/1/1 132/2/1 114/3/1 113/4/1
f 132/1/1 133/2/1 115/3/1 114/4/1
f 133/5/1 134/6/1 116/7/1 115/8/1
f 134/9/1 135/10/1 117/11/1 116/12/1
f 135/9/1 136/10/1 118/11/1 117/12/1
f 136/9/1 137/10/1 119/11/1 118/12/1
f 137/9/1 138/10/1 120/11/1 119/12/1
f 138/9/1 139/10/1 121/11/1 120/12/1
f 139/9/1 140/10/1 122/11/1 121/12/1
f 140/9/1 141/10/1 123/11/1 122/12/1
f 141/9/1 142/10/1 124/11/1 123/12/1
f 142/9/1 143/10/1 125/11/1 124/12/1
f 143/9/1 144/10/1 126/11/1 125/12/1
f 145/1/1 146/2/1 128/3/1 127/4/1
f 146/1/1 147/2/1 129/3/1 128/4/1
f 147/1/1 148/2/1 130/3/1 129/4/1
f 148/1/1 149/2/1 131/3/1 130/4/1
f 149/1/1 150/2/1 132/3/1 131/4/1
f 150/1/1 151/2/1 133/3/1 132/4/1
f 151/5/1 152/6/1 134/7/1 133/8/1
f 152/9/1 153/10/1 135/11/1 134/12/1
f 153/9/1 154/10/1 136/11/1 135/12/1
f 154/9/1 155/10/1 137/11/1 136/12/1
f 155/9/1 156/10/1 138/11/1 137/12/1
f 156/9/1 157/10/1 139/11/1 138/12/1
f 157/9/1 158/10/1 140/11/1 139/12/1
f 158/9/1 159/10/1 141/11/1 140/12/1
f 159/9/1 160/10/1 142/11/1 141/12/1
f 160/9/1 161/10/1 143/11/1 142/12/1
f 161/9/1 162/10/1 144/11/1 143/12/1
f 163/1/1 164/2/1 146/3/1 145/4/1
f 164/1/1 165/2/1 147/3/1 146/4/1
f 165/1/1 166/2/1 148/3/1 147/4/1
f 166/1/1 167/2/1 149/3/1 148/4/1
f 167/1/1 168/2/1 150/3/1 149/4/1
f 168/1/1 169/2/1 151/3/1 150/4/1
f 169/5/1 170/6/1 152/7/1 151/8/1
f 170/9/1 171/10/1 153/11/1 152/12/1
f 171/9/1 172/10/1 154/11/1 153/12/1
f 172/9/1 173/10/1 155/11/1 154/12/1
f 173/9/1 174/10/1 156/11/1 155/12/1
f 174/9/1 175/10/1 157/11/1 156/12/1
f 175/9/1 176/10/1 158/11/1 157/12/1
f 176/9/1 177/10/1 159/11/1 158/12/1
f 177/9/1 178/10/1 160/11/1 159/12/1
f 178/9/1 179/10/1 161/11/1 160/12/1
f 179/9/1 180/10/1 162/11/1 161/12/1
f 181/1/1 182/2/1 164/3/1 163/4/1
f 182/1/1 183/2/1 165/3/1 164/4/1
f 183/1/1 184/2/1 166/3/1 165/4/1
f 184/1/1 185/2/1 167/3/1 166/4/1
f 185/1/1 186/2/1 168/3/1 167/4/1
f 186/1/1 187/2/1 169/3/1 168/4/1
f 187/5/1 188/6/1 170/7/1 169/8/1
f 188/9/1 189/10/1 171/11/1 170/12/1
f 189/9/1 190/10/1 172/11/1 171/12/1
f 190/9/1 191/10/1 173/11/1 172/12/1
f 191/9/1 192/10/1 174/11/1 173/12/1
f 192/9/1 193/10/1 175/11/1 174/12/1
f 193/9/1 194/10/1 176/11/1 175/12/1
f 194/9/1 195/10/1 177/11/1 176/12/1
f 195/9/1 196/10/1 178/11/1 177/12/1
f 196/9/1 197/10/1 179/11/1 178/12/1
f 197/9/1 198/10/1 180/11/1 179/12/1
f 199/1/1 200/2/1 182/3/1 181/4/1
f 200/1/1 201/2/1 183/3/1 182/4/1
f 201/1/1 202/2/1 184/3/1 183/4/1
f 202/1/1 203/2/1 185/3/1 184/4/1
f 203/1/1 204/2/1 186/3/1 185/4/1
f 204/1/1 205/2/1 187/3/1 186/4/1
f 205/5/1 206/6/1 188/7/1 187/8/1
f 206/9/1 207/10/1 189/11/1 188/12/1
f 207/9/1 208/10/1 190/11/1 189/12/1
f 208/9/1 209/10/1 191/11/1 190/12/1
f 209/9/1 210/10/1 192/11/1 191/12/1
f 210/9/1 211/10/1 193/11/1 192/12/1
f 211/9/1 212/10/1 194/11/1 193/12/1
f 212/9/1 213/10/1 195/11/1 194/12/1
f 213/9/1 214/10/1 196/11/1 195/12/1
f 214/9/1 215/10/1 197/11/1 196/12/1
f 215/9/1 216/10/1 198/11/1 197/12/1
f 217/1/1 218/2/1 200/3/1 199/4/1
f 218/1/1 219/2/1 201/3/1 200/4/1
f 219/1/1 220/2/1 202/3/1 201/4/1
f 220/1/1 221/2/1 203/3/1 202/4/1
f 221/1/1 222/2/1 204/3/1 203/4/1
f 222/1/1 223/2/1 205/3/1 204/4/1
f 223/5/1 224/6/1 206/7/1 205/8/1
f 224/9/1 225/10/1 207/11/1 206/12/1
f 225/9/1 226/10/1 208/11/1 207/12/1
f 226/9/1 227/10/1 209/11/1 208/12/1
f 227/9/1 228/10/1 210/11/1 209/12/1
f 228/9/1 229/10/1 211/11/1 210/12/1
f 229/9/1 230/10/1 212/11/1 211/12/1
f 230/9/1 231/10/1 213/11/1 212/12/1
f 231/9/1 232/10/1 214/11/1 213/12/1
f 232/9/1 233/10/1 215/11/1 214/12/1
f 233/9/1 234/10/1 216/11/1 215/12/1
f 235/1/1 236/2/1 218/3/1 217/4/1
f 236/1/1 237/2/1 219/3/1 218/4/1
f 237/1/1 238/2/1 220/3/1 219/4/1
f 238/1/1 239/2/1 221/3/1 220/4/1
f 239/1/1 240/2/1 222/3/1 221/4/1
f 240/1/1 241/2/1 223/3/1 222/4/1
f 241/5/1 242/6/1 224/7/1 223/8/1
f 242/9/1 243/10/1 225/11/1 224/12/1
f 243/9/1 244/10/1 226/11/1 225/12/1
f 244/9/1 245/10/1 227/11/1 226/12/1
f 245/9/1 246/10/1 228/11/1 227/12/1
f 246/9/1 247/10/1 229/11/1 228/12/1
f 247/9/1 248/10/1 230/11/1 229/12/1
f 248/9/1 249/10/1 231/11/1 230/12/1
f 249/9/1 250/10/1 232/11/1 231/12/1
f 250/9/1 251/10/1 233/11/1 232/12/1
f 251/9/1 252/10/1 234/11/1 233/12/1
f 253/1/1 254/2/1 236/3/1 235/4/1
f 254/1/1 255/2/1 237/3/1 236/4/1
f 255/1/1 256/2/1 238/3/1 237/4/1
f 256/1/1 257/2/1 239/3/1 238/4/1
f 257/1/1 258/2/1 240/3/1 239/4/1
f 258/1/1 259/2/1 241/3/1 240/4/1
f 259/5/1 260/6/1 242/7/1 241/8/1
f 260/9/1 261/10/1 243/11/1 242/12/1
f 261/9/1 262/10/1 244/11/1 243/12/1
f 262/9/1 263/10/1 245/11/1 244/12/1
f 263/9/1 264/10/1 246/11/1 245/12/1
f 264/9/1 265/10/1 247/11/1 246/12/1
f 265/9/1 266/10/1 248/11/1 247/12/1
f 266/9/1 267/10/1 249/11/1 248/12/1
f 267/9/1 268/10/1 250/11/1 249/12/1
f 268/9/1 269/10/1 251/11/1 250/12/1
f 269/9/1 270/10/1 252/11/1 251/12/1
f 271/1/1 272/2/1 254/3/1 253/4/1
f 272/1/1 273/2/1 255/3/1 254/4/1
f 273/1/1 274/2/1 256/3/1 255/4/1
f 274/1/1 275/2/1 257/3/1 256/4/1
f 275/1/1 276/2/1 258/3/1 257/4/1
f 276/1/1 277/2/1 259/3/1 258/4/1
f 277/5/1 278/6/1 260/7/1 259/8/1
f 278/9/1 279/10/1 261/11/1 260/12/1
f 279/9/1 280/10/1 262/11/1 261/12/1
f 280/9/1 281/10/1 263/11/1 262/12/1
f 281/9/1 282/10/1 264/11/1 263/12/1
f 282/9/1 283/10/1 265/11/1 264/12/1
f 283/9/1 284/10/1 266/11/1 265/12/1
f 284/9/1 285/10/1 267/11/1 266/12/1
f 285/9/1 286/10/1 268/11/1 267/12/1
f 286/9/1 287/10/1 269/11/1 268/12/1
f 287/9/1 288/10/1 270/11/1 269/12/1
f 289/1/1 290/2/1 272/3/1 271/4/1
f 290/1/1 291/2/1 273/3/1 272/4/1
f 291/1/1 292/2/1 274/3/1 273/4/1
f 292/1/1 293/2/1 275/3/1 274/4/1
f 293/1/1 294/2/1 276/3/1 275/4/1
f 294/1/1 295/2/1 277/3/1 276/4/1
f 295/5/1 296/6/1 278/7/1 277/8/1
f 296/9/1 297/10/1 279/11/1 278/12/1
f 297/9/1 298/10/1 280/11/1 279/12/1
f 298/9/1 299/10/1 281/11/1 280/12/1
f 299/9/1 300/10/1 282/11/1 281/12/1
f 300/9/1 301/10/1 283/11/1 282/12/1
f 301/9/1 302/10/1 284/11/1 283/12/1
f 302/9/1 303/10/1 285/11/1 284/12/1
f 303/9/1 304/10/1 286/11/1 285/12/1
f 304/9/1 305/10/1 287/11/1 286/12/1
f 305/9/1 306/10/1 288/11/1 287/12/1

g mesh_0002
f 35/13/1 307/14/1 308/15/1 36/16/1
f 307/17/1 309/18/1 310/19/1 308/20/1
f 309/17/1 311/18/1 312/19/1 310/20/1
f 311/17/1 313/18/1 314/19/1 312/20/1
f 313/17/1 315/18/1 316/19/1 314/20/1
f 315/17/1 317/18/1 318/19/1 316/20/1
f 317/17/1 319/18/1 320/19/1 318/20/1
f 54/13/1 321/14/1 307/15/1 35/16/1
f 321/17/1 322/18/1 309/19/1 307/20/1
f 322/17/1 323/18/1 311/19/1 309/20/1
f 323/17/1 324/18/1 313/19/1 311/20/1
f 324/17/1 325/18/1 315/19/1 313/20/1
f 325/17/1 326/18/1 317/19/1 315/20/1
f 326/17/1 327/18/1 319/19/1 317/20/1
f 72/13/1 328/14/1 321/15/1 54/16/1
f 328/17/1 329/18/1 322/19/1 321/20/1
f 329/17/1 330/18/1 323/19/1 322/20/1
f 330/17/1 331/18/1 324/19/1 323/20/1
f 331/17/1 332/18/1 325/19/1 324/20/1
f 332/17/1 333/18/1 326/19/1 325/20/1
f 333/17/1 334/18/1 327/19/1 326/20/1
f 90/13/1 335/14/1 328/15/1 72/16/1
f 335/17/1 336/18/1 329/19/1 328/20/1
f 336/17/1 337/18/1 330/19/1 329/20/1
f 337/17/1 338/18/1 331/19/1 330/20/1
f 338/17/1 339/18/1 332/19/1 331/20/1
f 339/17/1 340/18/1 333/19/1 332/20/1
f 340/17/1 341/18/1 334/19/1 333/20/1
f 108/13/1 342/14/1 335/15/1 90/16/1
f 342/17/1 343/18/1 336/19/1 335/20/1
f 343/17/1 344/18/1 337/19/1 336/20/1
f 344/17/1 345/18/1 338/19/1 337/20/1
f 345/17/1 346/18/1 339/19/1 338/20/1
f 346/17/1 347/18/1 340/19/1 339/20/1
f 347/17/1 348/18/1 341/19/1 340/20/1
f 126/13/1 349/14/1 342/15/1 108/16/1
f 349/17/1 350/18/1 343/19/1 342/20/1
f 350/17/1 351/18/1 344/19/1 343/20/1
f 351/17/1 352/18/1 345/19/1 344/20/1
f 352/17/1 353/18/1 346/19/1 345/20/1
f 353/17/1 354/18/1 347/19/1 346/20/1
f 354/17/1 355/18/1 348/19/1 347/20/1
f 144/13/1 356/14/1 349/15/1 126/16/1
f 356/17/1 357/18/1 350/19/1 349/20/1
f 357/17/1 358/18/1 351/19/1 350/20/1
f 358/17/1 359/18/1 352/19/1 351/20/1
f 359/17/1 360/18/1 353/19/1 352/20/1
f 360/17/1 361/18/1 354/19/1 353/20/1
f 361/17/1 362/18/1 355/19/1 354/20/1
f 162/13/1 363/14/1 356/15/1 144/16/1
f 363/17/1 364/18/1 357/19/1 356/20/1
f 364/17/1 365/18/1 358/19/1 357/20/1
f 365/17/1 366/18/1 359/19/1 358/20/1
f 366/17/1 367/18/1 360/19/1 359/20/1
f 367/17/1 368/18/1 361/19/1 360/20/1
f 368/17/1 369/18/1 362/19/1 361/20/1
f 180/13/1 370/14/1 363/15/1 162/16/1
f 370/17/1 371/18/1 364/19/1 363/20/1
f 371/17/1 372/18/1 365/19/1 364/20/1
f 372/17/1 373/18/1 366/19/1 365/20/1
f 373/17/1 374/18/1 367/19/1 366/20/1
f 374/17/1 375/18/1 368/19/1 367/20/1
f 375/17/1 376/18/1 369/19/1 368/20/1
f 198/13/1 377/14/1 370/15/1 180/16/1
f 377/17/1 378/18/1 371/19/1 370/20/1
f 378/17/1 379/18/1 372/19/1 371/20/1
f 379/17/1 380/18/1 373/19/1 372/20/1
f 380/17/1 381/18/1 374/19/1 373/20/1
f 381/17/1 382/18/1 375/19/1 374/20/1
f 382/17/1 383/18/1 376/19/1 375/20/1
f 216/13/1 384/14/1 377/15/1 198/16/1
f 384/17/1 385/18/1 378/19/1 377/20/1
f 385/17/1 386/18/1 379/19/1 378/20/1
f 386/17/1 387/18/1 380/19/1 379/20/1
f 387/17/1 388/18/1 381/19/1 380/20/1
f 388/17/1 389/18/1 382/19/1 381/20/1
f 389/17/1 390/18/1 383/19/1 382/20/1
f 234/13/1 391/14/1 384/15/1 216/16/1
f 391/17/1 392/18/1 385/19/1 384/20/1
f 392/17/1 393/18/1 386/19/1 385/20/1
f 393/17/1 394/18/1 387/19/1 386/20/1
f 394/17/1 395/18/1 388/19/1 387/20/1
f 395/17/1 396/18/1 389/19/1 388/20/1
f 396/17/1 397/18/1 390/19/1 389/20/1
f 252/13/1 398/14/1 391/15/1 234/16/1
f 398/17/1 399/18/1 392/19/1 391/20/1
f 399/17/1 400/18/1 393/19/1 392/20/1
f 400/17/1 401/18/1 394/19/1 393/20/1
f 401/17/1 402/18/1 395/19/1 394/20/1
f 402/17/1 403/18/1 396/19/1 395/20/1
f 403/17/1 404/18/1 397/19/1 396/20/1
f 270/13/1 405/14/1 398/15/1 252/16/1
f 405/17/1 406/18/1 399/19/1 398/20/1
f 406/17/1 407/18/1 400/19/1 399/20/1
f 407/17/1 408/18/1 401/19/1 400/20/1
f 408/17/1 409/18/1 402/19/1 401/20/1
f 409/17/1 410/18/1 403/19/1 402/20/1
f 410/17/1 411/18/1 404/19/1 403/20/1
f 288/13/1 412/14/1 405/15/1 270/16/1
f 412/17/1 413/18/1 406/19/1 405/20/1
f 413/17/1 414/18/1 407/19/1 406/20/1
f 414/17/1 415/18/1 408/19/1 407/20/1
f 415/17/1 416/18/1 409/19/1 408/20/1
f 416/17/1 417/18/1 410/19/1 409/20/1
f 417/17/1 418/18/1 411/19/1 410/20/1
f 306/13/1 419/14/1 412/15/1 288/16/1
f 419/17/1 420/18/1 413/19/1 412/20/1
f 420/17/1 421/18/1 414/19/1 413/20/1
f 421/17/1 422/18/1 415/19/1 414/20/1
f 422/17/1 423/18/1 416/19/1 415/20/1
f 423/17/1 424/18/1 417/19/1 416/20/1
f 424/17/1 425/18/1 418/19/1 417/20/1

